<svg width="167" height="38" viewBox="0 0 167 38" fill="none" xmlns="http://www.w3.org/2000/svg">
<path d="M78.7256 9.49998C76.7643 9.49998 74.847 10.0848 73.2162 11.1806C71.5854 12.2764 70.3144 13.8338 69.5638 15.656C68.8132 17.4782 68.6168 19.4832 68.9995 21.4177C69.3821 23.3521 70.3266 25.129 71.7135 26.5236C73.1003 27.9182 74.8673 28.868 76.791 29.2528C78.7146 29.6375 80.7086 29.4401 82.5206 28.6853C84.3326 27.9305 85.8814 26.6524 86.9711 25.0124C88.0607 23.3725 88.6423 21.4445 88.6423 19.4722C88.6423 16.8274 87.5976 14.2909 85.7378 12.4208C83.8781 10.5506 81.3557 9.49998 78.7256 9.49998ZM78.7256 24.7419C77.6892 24.7415 76.6761 24.432 75.8146 23.8526C74.953 23.2732 74.2817 22.4499 73.8855 21.4868C73.4892 20.5237 73.3859 19.4641 73.5885 18.4419C73.7912 17.4198 74.2907 16.481 75.0239 15.7443C75.7571 15.0077 76.691 14.5062 77.7076 14.3033C78.7243 14.1003 79.7779 14.2052 80.7353 14.6044C81.6927 15.0037 82.5109 15.6795 83.0863 16.5463C83.6618 17.4132 83.9687 18.4321 83.9683 19.4744C83.968 20.1664 83.8321 20.8516 83.5685 21.4909C83.3049 22.1301 82.9186 22.7109 82.4318 23.2C81.945 23.6892 81.3671 24.0771 80.7312 24.3416C80.0953 24.6062 79.4138 24.7422 78.7256 24.7419ZM157.083 9.49998C155.122 9.49998 153.205 10.0848 151.574 11.1806C149.943 12.2764 148.672 13.8338 147.921 15.656C147.171 17.4782 146.974 19.4832 147.357 21.4177C147.74 23.3521 148.684 25.129 150.071 26.5236C151.458 27.9182 153.225 28.868 155.149 29.2528C157.072 29.6375 159.066 29.4401 160.878 28.6853C162.69 27.9305 164.239 26.6524 165.329 25.0124C166.418 23.3725 167 21.4445 167 19.4722C167 18.1626 166.743 16.8659 166.245 15.656C165.747 14.4461 165.016 13.3468 164.095 12.4208C163.175 11.4948 162.081 10.7602 160.878 10.2591C159.675 9.75793 158.386 9.49998 157.083 9.49998ZM157.083 24.7419C156.047 24.7419 155.033 24.4328 154.172 23.8537C153.31 23.2745 152.638 22.4514 152.242 21.4883C151.845 20.5253 151.741 19.4656 151.944 18.4433C152.146 17.421 152.645 16.482 153.379 15.7451C154.112 15.0082 155.046 14.5065 156.062 14.3034C157.079 14.1003 158.133 14.205 159.09 14.6042C160.048 15.0034 160.866 15.6792 161.442 16.5461C162.017 17.413 162.324 18.432 162.324 19.4744C162.323 20.8713 161.771 22.2107 160.789 23.1985C159.807 24.1862 158.475 24.7413 157.085 24.7419H157.083ZM105.799 23.2749L105.798 23.276C105.798 26.3227 103.449 29.4798 98.5591 29.4466C94.4827 29.4256 92.1 27.2889 90.9416 25.3334C90.8374 25.1575 90.9024 24.9333 91.0791 24.8307L93.8148 23.2426C94.0011 23.1344 94.2386 23.2044 94.3607 23.382C95.2752 24.7113 97.0948 25.3939 98.4622 25.4001C100.13 25.4001 100.985 24.6799 100.985 23.6893C100.985 22.8516 100.417 22.1647 98.9778 21.8589L96.5141 21.2871C92.9132 20.4871 91.2847 18.3154 91.2847 15.6872C91.2847 12.3343 94.2398 9.55317 98.2572 9.55095C102.204 9.55095 104.061 11.5169 105.082 13.3586C105.18 13.5355 105.114 13.7566 104.939 13.8576L101.684 15.7349C101.509 15.836 101.285 15.7815 101.178 15.6098C100.536 14.5824 99.8205 13.4163 98.3013 13.4002C96.9791 13.3847 95.9147 14.2002 95.9147 15.2683C95.9147 16.1814 96.5956 16.7531 97.6181 16.9437L100.263 17.5154C103.942 18.2821 105.8 20.5308 105.801 23.2738L105.799 23.2749ZM124.212 9.85012C124.422 9.85012 124.592 10.0203 124.592 10.2301V21.4688C124.592 23.5847 123.756 25.6138 122.268 27.11C120.78 28.6061 118.762 29.4466 116.658 29.4466C114.554 29.4466 112.536 28.6061 111.049 27.11C109.561 25.6138 108.725 23.5847 108.725 21.4688V10.2301C108.725 10.0203 108.895 9.85012 109.104 9.85012H112.973C113.183 9.85012 113.353 10.0203 113.353 10.2301V21.5021C113.353 22.3837 113.701 23.2292 114.321 23.8525C114.941 24.4759 115.782 24.8261 116.658 24.8261C117.535 24.8261 118.376 24.4759 118.996 23.8525C119.616 23.2292 119.964 22.3837 119.964 21.5021V10.2301C119.964 10.0203 120.134 9.85012 120.343 9.85012H124.212ZM62.6516 22.4181C62.7687 22.2433 63.0003 22.1791 63.1825 22.2842L66.5838 24.245C66.7649 24.3494 66.8283 24.5814 66.7178 24.7591C65.6294 26.5101 64.0251 27.8811 62.124 28.6779C60.1067 29.5235 57.8681 29.6752 55.7562 29.1095C53.6444 28.5438 51.7775 27.2924 50.4458 25.5498C49.114 23.8072 48.392 21.671 48.392 19.4733C48.392 17.2755 49.114 15.1394 50.4458 13.3968C51.7775 11.6542 53.6444 10.4028 55.7562 9.8371C57.8681 9.27141 60.1067 9.42312 62.124 10.2686C64.0251 11.0655 65.6294 12.4365 66.7178 14.1875C66.8283 14.3652 66.7649 14.5971 66.5838 14.7016L63.1825 16.6624C63.0003 16.7674 62.7687 16.7033 62.6516 16.5285C62.0801 15.6751 61.271 15.006 60.3217 14.6078C59.2552 14.1603 58.0715 14.0798 56.9548 14.3787C55.8381 14.6775 54.8508 15.339 54.1465 16.2604C53.4423 17.1817 53.0605 18.3112 53.0605 19.4733C53.0605 20.6354 53.4423 21.7649 54.1465 22.6862C54.8508 23.6075 55.8381 24.2691 56.9548 24.5679C58.0715 24.8668 59.2552 24.7862 60.3217 24.3388C61.271 23.9405 62.0801 23.2715 62.6516 22.4181Z" fill="#2451B2"/>
<path d="M128.581 29.0699C128.581 29.2798 128.751 29.4499 128.961 29.4499H132.829C133.039 29.4499 133.209 29.2798 133.209 29.0699V14.8539C133.209 14.6441 133.379 14.4739 133.588 14.4739H136.93C137.807 14.4739 138.648 14.8241 139.268 15.4475C139.888 16.0709 140.236 16.9164 140.236 17.798V29.0699C140.236 29.2798 140.406 29.4499 140.615 29.4499H144.484C144.694 29.4499 144.864 29.2798 144.864 29.0699V17.8312C144.864 15.7154 144.028 13.6862 142.54 12.1901C141.052 10.694 139.034 9.85348 136.93 9.85348L128.958 9.91594C128.749 9.91757 128.581 10.0872 128.581 10.2959L128.581 29.0699Z" fill="#2451B2"/>
<path d="M18.7954 2.94184e-06C17.8071 -4.77935e-05 16.927 -9.30904e-05 16.1964 0.0596655C15.4168 0.123437 14.6012 0.266926 13.8051 0.67304C12.6446 1.26506 11.7011 2.20971 11.1098 3.37161C10.7042 4.16865 10.5608 4.98523 10.4972 5.76576C10.4375 6.49717 10.4375 7.3784 10.4376 8.36788V19.1821C10.4375 20.1716 10.4375 21.0528 10.4972 21.7842C10.5608 22.5647 10.7042 23.3813 11.1098 24.1784C11.7011 25.3403 12.6446 26.2849 13.8051 26.8769C14.6012 27.283 15.4168 27.4265 16.1964 27.4903C16.927 27.5501 17.8072 27.55 18.7955 27.55L20.4955 27.55C20.7051 27.55 20.875 27.3798 20.875 27.17V23.18C20.875 22.9701 20.7051 22.8 20.4955 22.8H18.8824C17.7805 22.8 17.0967 22.7981 16.5828 22.7561C16.0998 22.7166 15.9765 22.6536 15.9593 22.6448C15.6915 22.5082 15.4735 22.29 15.337 22.0219C15.3283 22.0048 15.2652 21.8809 15.2257 21.3974C15.1837 20.8829 15.1819 20.1983 15.1819 19.095V8.45499C15.1819 7.3517 15.1837 6.66707 15.2257 6.15256C15.2652 5.66906 15.3281 5.54554 15.3368 5.52839C15.4733 5.26026 15.6912 5.04193 15.959 4.90531C15.9761 4.89657 16.0998 4.83339 16.5828 4.79388C17.0967 4.75184 17.7805 4.75 18.8825 4.75H29.5097C30.6117 4.75 31.2955 4.75184 31.8094 4.79388C32.2923 4.83338 32.4157 4.89639 32.4328 4.90514C32.7006 5.04176 32.9187 5.25993 33.0552 5.52806C33.0639 5.5452 33.127 5.66905 33.1665 6.15256C33.2084 6.66707 33.2103 7.3517 33.2103 8.45499V19.095C33.2103 20.1983 33.2084 20.8829 33.1665 21.3974C33.127 21.8809 33.0641 22.0044 33.0553 22.0216C32.9189 22.2897 32.701 22.508 32.4332 22.6446C32.416 22.6534 32.2923 22.7166 31.8094 22.7561C31.1406 22.8108 30.466 22.8045 29.7943 22.8011C29.5847 22.8001 29.4148 22.9701 29.4148 23.18V27.17C29.4148 27.3798 29.5847 27.55 29.7943 27.5506C30.595 27.5526 31.3978 27.5556 32.1957 27.4903C32.9753 27.4265 33.7909 27.283 34.587 26.8769C35.7475 26.2849 36.6911 25.3403 37.2824 24.1784C37.688 23.3813 37.8313 22.5647 37.895 21.7842C37.9547 21.0528 37.9547 20.1715 37.9546 19.182V8.36791C37.9547 7.37842 37.9547 6.49718 37.895 5.76576C37.8313 4.98523 37.688 4.16865 37.2824 3.37161C36.6911 2.20971 35.7475 1.26506 34.587 0.67304C33.7909 0.266926 32.9753 0.123437 32.1957 0.0596655C31.4652 -9.30904e-05 30.585 -4.77935e-05 29.5967 2.94184e-06H18.7954Z" fill="#2451B2"/>
<path d="M8.53977 10.83C8.53977 10.6202 8.36985 10.45 8.16024 10.4494C7.35953 10.4474 6.55681 10.4444 5.75888 10.5097C4.97928 10.5735 4.16367 10.717 3.36758 11.1231C2.20707 11.7151 1.26355 12.6597 0.672236 13.8216C0.266608 14.6187 0.12329 15.4353 0.0595942 16.2158C-9.29792e-05 16.9472 -4.77365e-05 17.8284 2.93833e-06 18.8179V29.6321C-4.77365e-05 30.6216 -9.29792e-05 31.5028 0.0595942 32.2342C0.12329 33.0148 0.266608 33.8313 0.672236 34.6284C1.26355 35.7903 2.20707 36.7349 3.36758 37.327C4.16367 37.7331 4.97928 37.8766 5.75888 37.9403C6.48942 38.0001 7.3696 38 8.35792 38H19.1591C20.1475 38 21.0276 38.0001 21.7582 37.9403C22.5378 37.8766 23.3534 37.7331 24.1495 37.327C25.31 36.7349 26.2535 35.7903 26.8448 34.6284C27.2504 33.8313 27.3938 33.0148 27.4575 32.2342C27.5172 31.5028 27.5171 30.6216 27.5171 29.6321V18.818C27.5171 17.8285 27.5172 16.9472 27.4575 16.2158C27.3938 15.4353 27.2504 14.6187 26.8448 13.8216C26.2535 12.6597 25.31 11.7151 24.1495 11.1231C23.3534 10.717 22.5378 10.5735 21.7582 10.5097C21.0276 10.4499 20.1475 10.45 19.1592 10.45L17.4591 10.45C17.2495 10.45 17.0795 10.6202 17.0795 10.83V14.82C17.0795 15.0299 17.2495 15.2 17.4591 15.2H19.0722C20.1741 15.2 20.8579 15.2019 21.3718 15.2439C21.8548 15.2834 21.9781 15.3464 21.9953 15.3552C22.2631 15.4918 22.4811 15.71 22.6176 15.9781C22.6263 15.9952 22.6894 16.1191 22.7289 16.6026C22.7709 17.1171 22.7727 17.8017 22.7727 18.905V29.545C22.7727 30.6483 22.7709 31.3329 22.7289 31.8474C22.6894 32.3309 22.6265 32.4545 22.6178 32.4716C22.4813 32.7397 22.2634 32.9581 21.9956 33.0947C21.9785 33.1034 21.8548 33.1666 21.3718 33.2061C20.8579 33.2482 20.1741 33.25 19.0722 33.25H8.44489C7.34292 33.25 6.65911 33.2482 6.14521 33.2061C5.66228 33.1666 5.53891 33.1036 5.52179 33.0949C5.25398 32.9582 5.03591 32.7401 4.89945 32.4719C4.89072 32.4548 4.82761 32.3309 4.78816 31.8474C4.74617 31.3329 4.74432 30.6483 4.74432 29.545V18.905C4.74432 17.8017 4.74617 17.1171 4.78816 16.6026C4.82761 16.1191 4.89055 15.9956 4.89928 15.9784C5.03574 15.7103 5.25365 15.492 5.52146 15.3554C5.53858 15.3466 5.66228 15.2834 6.14521 15.2439C6.81397 15.1892 7.48855 15.1955 8.16023 15.1989C8.36984 15.1999 8.53977 15.0299 8.53977 14.82V10.83Z" fill="#2451B2"/>
</svg>
